<mxfile host="app.diagrams.net" agent="Mozilla/5.0 (Windows NT 10.0; Win64; x64) AppleWebKit/537.36 (KHTML, like Gecko) Chrome/135.0.0.0 Safari/537.36" version="26.2.9">
  <diagram name="Page-1" id="nP1CeXoAACwTk45RcaDf">
    <mxGraphModel dx="874" dy="1600" grid="1" gridSize="10" guides="1" tooltips="1" connect="1" arrows="1" fold="1" page="1" pageScale="1" pageWidth="827" pageHeight="1169" math="0" shadow="0">
      <root>
        <mxCell id="0" />
        <mxCell id="1" parent="0" />
        <mxCell id="FipvnmAfM_Z422ko0yMF-2" value="&lt;div style=&quot;text-align: left;&quot;&gt;&lt;u style=&quot;background-color: transparent; color: light-dark(rgb(0, 0, 0), rgb(255, 255, 255));&quot;&gt;1. Brand&lt;/u&gt;&lt;/div&gt;&lt;div style=&quot;text-align: left;&quot;&gt;brand_id (PK)&lt;/div&gt;&lt;div style=&quot;text-align: left;&quot;&gt;Name&lt;/div&gt;&lt;div style=&quot;text-align: left;&quot;&gt;Description&lt;/div&gt;&lt;div style=&quot;text-align: left;&quot;&gt;&lt;br&gt;&lt;/div&gt;" style="whiteSpace=wrap;html=1;aspect=fixed;" vertex="1" parent="1">
          <mxGeometry x="10" y="10" width="200" height="200" as="geometry" />
        </mxCell>
        <mxCell id="KIr-b63hb1bfMVlRm7Oq-1" value="&lt;div style=&quot;text-align: left;&quot;&gt;&lt;u&gt;2. &lt;strong data-end=&quot;591&quot; data-start=&quot;571&quot;&gt;product_category&lt;/strong&gt;&lt;/u&gt;&lt;/div&gt;&lt;div style=&quot;text-align: left;&quot;&gt;&lt;li class=&quot;&quot; data-end=&quot;612&quot; data-start=&quot;592&quot;&gt;&lt;p class=&quot;&quot; data-end=&quot;612&quot; data-start=&quot;594&quot;&gt;&lt;code data-end=&quot;607&quot; data-start=&quot;594&quot;&gt;category_id&lt;/code&gt; (PK)&lt;/p&gt;&lt;/li&gt;&lt;li class=&quot;&quot; data-end=&quot;630&quot; data-start=&quot;613&quot;&gt;&lt;p class=&quot;&quot; data-end=&quot;630&quot; data-start=&quot;615&quot;&gt;&lt;code data-end=&quot;630&quot; data-start=&quot;615&quot;&gt;category_name&lt;/code&gt;&lt;/p&gt;&lt;/li&gt;&lt;li class=&quot;&quot; data-end=&quot;630&quot; data-start=&quot;613&quot;&gt;&lt;p class=&quot;&quot; data-end=&quot;630&quot; data-start=&quot;615&quot;&gt;&lt;span style=&quot;background-color: transparent; color: light-dark(rgb(0, 0, 0), rgb(255, 255, 255));&quot;&gt;description&lt;/span&gt;&lt;/p&gt;&lt;/li&gt;&lt;/div&gt;&lt;div style=&quot;text-align: left;&quot;&gt;&lt;br&gt;&lt;/div&gt;" style="whiteSpace=wrap;html=1;aspect=fixed;" vertex="1" parent="1">
          <mxGeometry x="230" y="10" width="200" height="200" as="geometry" />
        </mxCell>
        <mxCell id="KIr-b63hb1bfMVlRm7Oq-3" value="&lt;div style=&quot;&quot;&gt;&lt;u&gt;4. &lt;strong data-end=&quot;851&quot; data-start=&quot;834&quot;&gt;product_image&lt;/strong&gt;&lt;/u&gt;&lt;/div&gt;&lt;div style=&quot;&quot;&gt;&lt;li class=&quot;&quot; data-end=&quot;869&quot; data-start=&quot;852&quot;&gt;&lt;p class=&quot;&quot; data-end=&quot;869&quot; data-start=&quot;854&quot;&gt;&lt;code data-end=&quot;864&quot; data-start=&quot;854&quot;&gt;image_id&lt;/code&gt; (PK)&lt;/p&gt;&lt;/li&gt;&lt;li class=&quot;&quot; data-end=&quot;910&quot; data-start=&quot;870&quot;&gt;&lt;br&gt;&lt;p class=&quot;&quot; data-end=&quot;910&quot; data-start=&quot;872&quot;&gt;&lt;code data-end=&quot;884&quot; data-start=&quot;872&quot;&gt;product_id&lt;/code&gt; (FK → product.product_id)&lt;/p&gt;&lt;/li&gt;&lt;li class=&quot;&quot; data-end=&quot;924&quot; data-start=&quot;911&quot;&gt;&lt;p class=&quot;&quot; data-end=&quot;924&quot; data-start=&quot;913&quot;&gt;&lt;code data-end=&quot;924&quot; data-start=&quot;913&quot;&gt;image_url&lt;/code&gt;&lt;/p&gt;&lt;/li&gt;&lt;/div&gt;&lt;div style=&quot;text-align: left;&quot;&gt;&lt;br&gt;&lt;/div&gt;" style="whiteSpace=wrap;html=1;aspect=fixed;" vertex="1" parent="1">
          <mxGeometry y="230" width="200" height="200" as="geometry" />
        </mxCell>
        <mxCell id="KIr-b63hb1bfMVlRm7Oq-4" value="&lt;div style=&quot;text-align: left;&quot;&gt;&lt;u&gt;5. &lt;strong data-end=&quot;948&quot; data-start=&quot;939&quot;&gt;color&lt;/strong&gt;&lt;/u&gt;&lt;/div&gt;&lt;div style=&quot;text-align: left;&quot;&gt;&lt;li class=&quot;&quot; data-end=&quot;966&quot; data-start=&quot;949&quot;&gt;&lt;p class=&quot;&quot; data-end=&quot;966&quot; data-start=&quot;951&quot;&gt;&lt;code data-end=&quot;961&quot; data-start=&quot;951&quot;&gt;color_id&lt;/code&gt; (PK)&lt;/p&gt;&lt;/li&gt;&lt;li class=&quot;&quot; data-end=&quot;981&quot; data-start=&quot;967&quot;&gt;&lt;br&gt;&lt;p class=&quot;&quot; data-end=&quot;981&quot; data-start=&quot;969&quot;&gt;&lt;code data-end=&quot;981&quot; data-start=&quot;969&quot;&gt;color_name&lt;/code&gt;&lt;/p&gt;&lt;/li&gt;&lt;li class=&quot;&quot; data-end=&quot;995&quot; data-start=&quot;982&quot;&gt;&lt;p class=&quot;&quot; data-end=&quot;995&quot; data-start=&quot;984&quot;&gt;&lt;code data-end=&quot;995&quot; data-start=&quot;984&quot;&gt;hex_value&lt;/code&gt;&lt;/p&gt;&lt;/li&gt;&lt;/div&gt;" style="whiteSpace=wrap;html=1;aspect=fixed;" vertex="1" parent="1">
          <mxGeometry x="210" y="230" width="220" height="220" as="geometry" />
        </mxCell>
        <mxCell id="KIr-b63hb1bfMVlRm7Oq-5" value="&lt;div style=&quot;text-align: left;&quot;&gt;&lt;u&gt;6. &lt;strong data-end=&quot;1027&quot; data-start=&quot;1010&quot;&gt;size_category&lt;/strong&gt;&lt;/u&gt;&lt;/div&gt;&lt;div style=&quot;text-align: left;&quot;&gt;&lt;li class=&quot;&quot; data-end=&quot;1053&quot; data-start=&quot;1028&quot;&gt;&lt;p class=&quot;&quot; data-end=&quot;1053&quot; data-start=&quot;1030&quot;&gt;&lt;code data-end=&quot;1048&quot; data-start=&quot;1030&quot;&gt;size_category_id&lt;/code&gt; (PK)&lt;/p&gt;&lt;/li&gt;&lt;li class=&quot;&quot; data-end=&quot;1085&quot; data-start=&quot;1054&quot;&gt;&lt;p class=&quot;&quot; data-end=&quot;1085&quot; data-start=&quot;1056&quot;&gt;&lt;code data-end=&quot;1062&quot; data-start=&quot;1056&quot;&gt;name&lt;/code&gt; (e.g., clothing, shoe)&lt;/p&gt;&lt;/li&gt;&lt;/div&gt;" style="whiteSpace=wrap;html=1;aspect=fixed;" vertex="1" parent="1">
          <mxGeometry x="10" y="450" width="160" height="160" as="geometry" />
        </mxCell>
        <mxCell id="KIr-b63hb1bfMVlRm7Oq-6" value="&lt;div style=&quot;&quot;&gt;&lt;u&gt;7. &lt;strong data-end=&quot;1115&quot; data-start=&quot;1100&quot;&gt;size_option&lt;/strong&gt;&lt;/u&gt;&lt;/div&gt;&lt;div style=&quot;&quot;&gt;&lt;li class=&quot;&quot; data-end=&quot;1139&quot; data-start=&quot;1116&quot;&gt;&lt;p class=&quot;&quot; data-end=&quot;1139&quot; data-start=&quot;1118&quot;&gt;&lt;code data-end=&quot;1134&quot; data-start=&quot;1118&quot;&gt;size_option_id&lt;/code&gt; (PK)&lt;/p&gt;&lt;/li&gt;&lt;li class=&quot;&quot; data-end=&quot;1139&quot; data-start=&quot;1116&quot;&gt;&lt;p class=&quot;&quot; data-end=&quot;1139&quot; data-start=&quot;1118&quot;&gt;&lt;code style=&quot;background-color: transparent; color: light-dark(rgb(0, 0, 0), rgb(255, 255, 255));&quot; data-end=&quot;1160&quot; data-start=&quot;1142&quot;&gt;size_category_id&lt;/code&gt;&lt;span style=&quot;background-color: transparent; color: light-dark(rgb(0, 0, 0), rgb(255, 255, 255));&quot;&gt; (FK → size_category.size_category_id)&lt;/span&gt;&lt;/p&gt;&lt;/li&gt;&lt;li class=&quot;&quot; data-end=&quot;1228&quot; data-start=&quot;1199&quot;&gt;&lt;p class=&quot;&quot; data-end=&quot;1228&quot; data-start=&quot;1201&quot;&gt;&lt;code data-end=&quot;1208&quot; data-start=&quot;1201&quot;&gt;value&lt;/code&gt; (e.g., S, M, L, 42)&lt;/p&gt;&lt;/li&gt;&lt;/div&gt;" style="whiteSpace=wrap;html=1;aspect=fixed;" vertex="1" parent="1">
          <mxGeometry x="190" y="470" width="200" height="200" as="geometry" />
        </mxCell>
        <mxCell id="KIr-b63hb1bfMVlRm7Oq-7" value="&lt;div style=&quot;&quot;&gt;&lt;u&gt;8. &lt;strong data-end=&quot;1259&quot; data-start=&quot;1243&quot;&gt;product_item&lt;/strong&gt;&lt;/u&gt;&lt;/div&gt;&lt;div style=&quot;&quot;&gt;&lt;li class=&quot;&quot; data-end=&quot;1276&quot; data-start=&quot;1260&quot;&gt;&lt;p class=&quot;&quot; data-end=&quot;1276&quot; data-start=&quot;1262&quot;&gt;&lt;code data-end=&quot;1271&quot; data-start=&quot;1262&quot;&gt;item_id&lt;/code&gt; (PK)&lt;/p&gt;&lt;/li&gt;&lt;li class=&quot;&quot; data-end=&quot;1317&quot; data-start=&quot;1277&quot;&gt;&lt;br&gt;&lt;p class=&quot;&quot; data-end=&quot;1317&quot; data-start=&quot;1279&quot;&gt;&lt;code data-end=&quot;1291&quot; data-start=&quot;1279&quot;&gt;product_id&lt;/code&gt; (FK → product.product_id)&lt;/p&gt;&lt;/li&gt;&lt;li class=&quot;&quot; data-end=&quot;1352&quot; data-start=&quot;1318&quot;&gt;&lt;br&gt;&lt;p class=&quot;&quot; data-end=&quot;1352&quot; data-start=&quot;1320&quot;&gt;&lt;code data-end=&quot;1330&quot; data-start=&quot;1320&quot;&gt;color_id&lt;/code&gt; (FK → color.color_id)&lt;/p&gt;&lt;/li&gt;&lt;li class=&quot;&quot; data-end=&quot;1405&quot; data-start=&quot;1353&quot;&gt;&lt;br&gt;&lt;p class=&quot;&quot; data-end=&quot;1405&quot; data-start=&quot;1355&quot;&gt;&lt;code data-end=&quot;1371&quot; data-start=&quot;1355&quot;&gt;size_option_id&lt;/code&gt; (FK → size_option.size_option_id)&lt;/p&gt;&lt;/li&gt;&lt;li class=&quot;&quot; data-end=&quot;1424&quot; data-start=&quot;1406&quot;&gt;&lt;br&gt;&lt;p class=&quot;&quot; data-end=&quot;1424&quot; data-start=&quot;1408&quot;&gt;&lt;code data-end=&quot;1424&quot; data-start=&quot;1408&quot;&gt;stock_quantity&lt;/code&gt;&lt;/p&gt;&lt;/li&gt;&lt;li class=&quot;&quot; data-end=&quot;1454&quot; data-start=&quot;1425&quot;&gt;&lt;br&gt;&lt;p class=&quot;&quot; data-end=&quot;1454&quot; data-start=&quot;1427&quot;&gt;&lt;code data-end=&quot;1443&quot; data-start=&quot;1427&quot;&gt;price_override&lt;/code&gt; (nullable)&lt;/p&gt;&lt;/li&gt;&lt;/div&gt;" style="whiteSpace=wrap;html=1;aspect=fixed;" vertex="1" parent="1">
          <mxGeometry x="440" y="390" width="390" height="390" as="geometry" />
        </mxCell>
        <mxCell id="KIr-b63hb1bfMVlRm7Oq-8" value="&lt;div style=&quot;&quot;&gt;&lt;u&gt;9. &lt;strong data-end=&quot;1490&quot; data-start=&quot;1469&quot;&gt;product_variation&lt;/strong&gt;&lt;/u&gt;&lt;/div&gt;&lt;div style=&quot;&quot;&gt;&lt;li class=&quot;&quot; data-end=&quot;1512&quot; data-start=&quot;1491&quot;&gt;&lt;p class=&quot;&quot; data-end=&quot;1512&quot; data-start=&quot;1493&quot;&gt;&lt;code data-end=&quot;1507&quot; data-start=&quot;1493&quot;&gt;variation_id&lt;/code&gt; (PK)&lt;/p&gt;&lt;/li&gt;&lt;li class=&quot;&quot; data-end=&quot;1553&quot; data-start=&quot;1513&quot;&gt;&lt;br&gt;&lt;p class=&quot;&quot; data-end=&quot;1553&quot; data-start=&quot;1515&quot;&gt;&lt;code data-end=&quot;1527&quot; data-start=&quot;1515&quot;&gt;product_id&lt;/code&gt; (FK → product.product_id)&lt;/p&gt;&lt;/li&gt;&lt;li class=&quot;&quot; data-end=&quot;1553&quot; data-start=&quot;1513&quot;&gt;&lt;p class=&quot;&quot; data-end=&quot;1553&quot; data-start=&quot;1515&quot;&gt;&lt;code style=&quot;background-color: transparent; color: light-dark(rgb(0, 0, 0), rgb(255, 255, 255));&quot; data-end=&quot;1572&quot; data-start=&quot;1556&quot;&gt;variation_type&lt;/code&gt;&lt;span style=&quot;background-color: transparent; color: light-dark(rgb(0, 0, 0), rgb(255, 255, 255));&quot;&gt; (e.g., size, color)&lt;/span&gt;&lt;/p&gt;&lt;/li&gt;&lt;/div&gt;&lt;div style=&quot;text-align: left;&quot;&gt;&lt;br&gt;&lt;/div&gt;" style="whiteSpace=wrap;html=1;aspect=fixed;" vertex="1" parent="1">
          <mxGeometry x="10" y="680" width="200" height="200" as="geometry" />
        </mxCell>
        <mxCell id="KIr-b63hb1bfMVlRm7Oq-9" value="&lt;div style=&quot;&quot;&gt;&lt;u&gt;10. &lt;strong data-end=&quot;1626&quot; data-start=&quot;1608&quot;&gt;attribute_type&lt;/strong&gt;&lt;/u&gt;&lt;/div&gt;&lt;div style=&quot;&quot;&gt;&lt;li class=&quot;&quot; data-end=&quot;1653&quot; data-start=&quot;1627&quot;&gt;&lt;p class=&quot;&quot; data-end=&quot;1653&quot; data-start=&quot;1629&quot;&gt;&lt;code data-end=&quot;1648&quot; data-start=&quot;1629&quot;&gt;attribute_type_id&lt;/code&gt; (PK)&lt;/p&gt;&lt;/li&gt;&lt;li class=&quot;&quot; data-end=&quot;1697&quot; data-start=&quot;1654&quot;&gt;&lt;p class=&quot;&quot; data-end=&quot;1697&quot; data-start=&quot;1656&quot;&gt;&lt;code data-end=&quot;1667&quot; data-start=&quot;1656&quot;&gt;type_name&lt;/code&gt; (e.g., text, number, boolean)&lt;/p&gt;&lt;/li&gt;&lt;/div&gt;" style="whiteSpace=wrap;html=1;aspect=fixed;" vertex="1" parent="1">
          <mxGeometry x="40" y="910" width="200" height="200" as="geometry" />
        </mxCell>
        <mxCell id="KIr-b63hb1bfMVlRm7Oq-10" value="&lt;div style=&quot;&quot;&gt;&lt;u&gt;11. &lt;strong data-end=&quot;1735&quot; data-start=&quot;1713&quot;&gt;attribute_category&lt;/strong&gt;&lt;/u&gt;&lt;/div&gt;&lt;div style=&quot;&quot;&gt;&lt;ul data-end=&quot;1812&quot; data-start=&quot;1736&quot;&gt;&lt;li class=&quot;&quot; data-end=&quot;1766&quot; data-start=&quot;1736&quot;&gt;&lt;p class=&quot;&quot; data-end=&quot;1766&quot; data-start=&quot;1738&quot;&gt;&lt;code data-end=&quot;1761&quot; data-start=&quot;1738&quot;&gt;attribute_category_id&lt;/code&gt; (PK)&lt;/p&gt;&lt;/li&gt;&lt;li class=&quot;&quot; data-end=&quot;1812&quot; data-start=&quot;1767&quot;&gt;&lt;p class=&quot;&quot; data-end=&quot;1812&quot; data-start=&quot;1769&quot;&gt;&lt;code data-end=&quot;1784&quot; data-start=&quot;1769&quot;&gt;category_name&lt;/code&gt; (e.g., physical, technical)&lt;/p&gt;&lt;br&gt;&lt;/li&gt;&lt;br&gt;&lt;/ul&gt;&lt;/div&gt;" style="whiteSpace=wrap;html=1;aspect=fixed;" vertex="1" parent="1">
          <mxGeometry x="245" y="720" width="170" height="170" as="geometry" />
        </mxCell>
        <mxCell id="KIr-b63hb1bfMVlRm7Oq-11" value="&lt;div style=&quot;&quot;&gt;&lt;u&gt;12. &lt;strong data-end=&quot;1849&quot; data-start=&quot;1828&quot;&gt;product_attribute&lt;/strong&gt;&lt;/u&gt;&lt;/div&gt;&lt;div style=&quot;&quot;&gt;&lt;ul data-end=&quot;2087&quot; data-start=&quot;1850&quot;&gt;&lt;li class=&quot;&quot; data-end=&quot;1871&quot; data-start=&quot;1850&quot;&gt;&lt;p class=&quot;&quot; data-end=&quot;1871&quot; data-start=&quot;1852&quot;&gt;&lt;code data-end=&quot;1866&quot; data-start=&quot;1852&quot;&gt;attribute_id&lt;/code&gt; (PK)&lt;/p&gt;&lt;/li&gt;&lt;li class=&quot;&quot; data-end=&quot;1912&quot; data-start=&quot;1872&quot;&gt;&lt;p class=&quot;&quot; data-end=&quot;1912&quot; data-start=&quot;1874&quot;&gt;&lt;code data-end=&quot;1886&quot; data-start=&quot;1874&quot;&gt;product_id&lt;/code&gt; (FK → product.product_id)&lt;/p&gt;&lt;/li&gt;&lt;li class=&quot;&quot; data-end=&quot;1986&quot; data-start=&quot;1913&quot;&gt;&lt;p class=&quot;&quot; data-end=&quot;1986&quot; data-start=&quot;1915&quot;&gt;&lt;code data-end=&quot;1938&quot; data-start=&quot;1915&quot;&gt;attribute_category_id&lt;/code&gt; (FK → attribute_category.attribute_category_id)&lt;/p&gt;&lt;/li&gt;&lt;li class=&quot;&quot; data-end=&quot;2048&quot; data-start=&quot;1987&quot;&gt;&lt;p class=&quot;&quot; data-end=&quot;2048&quot; data-start=&quot;1989&quot;&gt;&lt;code data-end=&quot;2008&quot; data-start=&quot;1989&quot;&gt;attribute_type_id&lt;/code&gt; (FK → attribute_type.attribute_type_id)&lt;/p&gt;&lt;/li&gt;&lt;li class=&quot;&quot; data-end=&quot;2067&quot; data-start=&quot;2049&quot;&gt;&lt;p class=&quot;&quot; data-end=&quot;2067&quot; data-start=&quot;2051&quot;&gt;&lt;code data-end=&quot;2067&quot; data-start=&quot;2051&quot;&gt;attribute_name&lt;/code&gt;&lt;/p&gt;&lt;/li&gt;&lt;li class=&quot;&quot; data-end=&quot;2087&quot; data-start=&quot;2068&quot;&gt;&lt;p class=&quot;&quot; data-end=&quot;2087&quot; data-start=&quot;2070&quot;&gt;&lt;code data-end=&quot;2087&quot; data-start=&quot;2070&quot;&gt;attribute_value&lt;/code&gt;&lt;/p&gt;&lt;br&gt;&lt;/li&gt;&lt;br&gt;&lt;/ul&gt;&lt;/div&gt;" style="whiteSpace=wrap;html=1;aspect=fixed;" vertex="1" parent="1">
          <mxGeometry x="450" y="815" width="335" height="335" as="geometry" />
        </mxCell>
        <mxCell id="KIr-b63hb1bfMVlRm7Oq-12" value="" style="curved=1;endArrow=classic;html=1;rounded=0;entryX=0.25;entryY=0;entryDx=0;entryDy=0;" edge="1" parent="1" target="KIr-b63hb1bfMVlRm7Oq-1">
          <mxGeometry width="50" height="50" relative="1" as="geometry">
            <mxPoint x="140" y="10" as="sourcePoint" />
            <mxPoint x="190" y="-40" as="targetPoint" />
            <Array as="points">
              <mxPoint x="190" y="10" />
              <mxPoint x="140" y="-40" />
            </Array>
          </mxGeometry>
        </mxCell>
        <mxCell id="KIr-b63hb1bfMVlRm7Oq-13" value="" style="curved=1;endArrow=classic;html=1;rounded=0;entryX=0.289;entryY=0.005;entryDx=0;entryDy=0;entryPerimeter=0;" edge="1" parent="1" source="KIr-b63hb1bfMVlRm7Oq-1" target="KIr-b63hb1bfMVlRm7Oq-2">
          <mxGeometry width="50" height="50" relative="1" as="geometry">
            <mxPoint x="380" y="20" as="sourcePoint" />
            <mxPoint x="430" y="-30" as="targetPoint" />
            <Array as="points">
              <mxPoint x="430" y="20" />
              <mxPoint x="380" y="-30" />
            </Array>
          </mxGeometry>
        </mxCell>
        <mxCell id="KIr-b63hb1bfMVlRm7Oq-14" value="" style="curved=1;endArrow=classic;html=1;rounded=0;entryX=0.75;entryY=0;entryDx=0;entryDy=0;" edge="1" parent="1" source="KIr-b63hb1bfMVlRm7Oq-2" target="KIr-b63hb1bfMVlRm7Oq-3">
          <mxGeometry width="50" height="50" relative="1" as="geometry">
            <mxPoint x="430" y="250" as="sourcePoint" />
            <mxPoint x="480" y="200" as="targetPoint" />
            <Array as="points" />
          </mxGeometry>
        </mxCell>
        <mxCell id="KIr-b63hb1bfMVlRm7Oq-15" value="" style="curved=1;endArrow=classic;html=1;rounded=0;entryX=0;entryY=1;entryDx=0;entryDy=0;" edge="1" parent="1" target="KIr-b63hb1bfMVlRm7Oq-4">
          <mxGeometry width="50" height="50" relative="1" as="geometry">
            <mxPoint x="130" y="430" as="sourcePoint" />
            <mxPoint x="180" y="380" as="targetPoint" />
            <Array as="points">
              <mxPoint x="180" y="430" />
              <mxPoint x="130" y="380" />
            </Array>
          </mxGeometry>
        </mxCell>
        <mxCell id="KIr-b63hb1bfMVlRm7Oq-16" value="" style="curved=1;endArrow=classic;html=1;rounded=0;entryX=0.75;entryY=0;entryDx=0;entryDy=0;" edge="1" parent="1" source="KIr-b63hb1bfMVlRm7Oq-2" target="KIr-b63hb1bfMVlRm7Oq-2">
          <mxGeometry width="50" height="50" relative="1" as="geometry">
            <mxPoint x="430" y="250" as="sourcePoint" />
            <mxPoint x="150" y="230" as="targetPoint" />
            <Array as="points">
              <mxPoint x="480" y="250" />
              <mxPoint x="430" y="200" />
            </Array>
          </mxGeometry>
        </mxCell>
        <mxCell id="KIr-b63hb1bfMVlRm7Oq-23" style="edgeStyle=orthogonalEdgeStyle;rounded=0;orthogonalLoop=1;jettySize=auto;html=1;exitX=0.25;exitY=0;exitDx=0;exitDy=0;" edge="1" parent="1" source="KIr-b63hb1bfMVlRm7Oq-2">
          <mxGeometry relative="1" as="geometry">
            <mxPoint x="530" y="30" as="targetPoint" />
          </mxGeometry>
        </mxCell>
        <mxCell id="KIr-b63hb1bfMVlRm7Oq-2" value="&lt;div style=&quot;text-align: left;&quot;&gt;&lt;u&gt;3. &lt;strong data-end=&quot;672&quot; data-start=&quot;661&quot;&gt;product&lt;/strong&gt;&lt;/u&gt;&lt;/div&gt;&lt;div style=&quot;text-align: left;&quot;&gt;&lt;li class=&quot;&quot; data-end=&quot;692&quot; data-start=&quot;673&quot;&gt;&lt;p class=&quot;&quot; data-end=&quot;692&quot; data-start=&quot;675&quot;&gt;&lt;code data-end=&quot;687&quot; data-start=&quot;675&quot;&gt;product_id&lt;/code&gt; (PK)&lt;/p&gt;&lt;/li&gt;&lt;li class=&quot;&quot; data-end=&quot;701&quot; data-start=&quot;693&quot;&gt;&lt;p class=&quot;&quot; data-end=&quot;701&quot; data-start=&quot;695&quot;&gt;&lt;code data-end=&quot;701&quot; data-start=&quot;695&quot;&gt;name&lt;/code&gt;&lt;/p&gt;&lt;/li&gt;&lt;li class=&quot;&quot; data-end=&quot;736&quot; data-start=&quot;702&quot;&gt;&lt;p class=&quot;&quot; data-end=&quot;736&quot; data-start=&quot;704&quot;&gt;&lt;code data-end=&quot;714&quot; data-start=&quot;704&quot;&gt;brand_id&lt;/code&gt; (FK → brand.brand_id)&lt;/p&gt;&lt;/li&gt;&lt;li class=&quot;&quot; data-end=&quot;788&quot; data-start=&quot;737&quot;&gt;&lt;p class=&quot;&quot; data-end=&quot;788&quot; data-start=&quot;739&quot;&gt;&lt;code data-end=&quot;752&quot; data-start=&quot;739&quot;&gt;category_id&lt;/code&gt; (FK → product_category.category_id)&lt;/p&gt;&lt;/li&gt;&lt;li class=&quot;&quot; data-end=&quot;803&quot; data-start=&quot;789&quot;&gt;&lt;p class=&quot;&quot; data-end=&quot;803&quot; data-start=&quot;791&quot;&gt;&lt;code data-end=&quot;803&quot; data-start=&quot;791&quot;&gt;base_price&lt;/code&gt;&lt;/p&gt;&lt;/li&gt;&lt;li class=&quot;&quot; data-end=&quot;819&quot; data-start=&quot;804&quot;&gt;&lt;p class=&quot;&quot; data-end=&quot;819&quot; data-start=&quot;806&quot;&gt;&lt;code data-end=&quot;819&quot; data-start=&quot;806&quot;&gt;description&lt;/code&gt;&lt;/p&gt;&lt;/li&gt;&lt;/div&gt;&lt;div style=&quot;text-align: left;&quot;&gt;&lt;br&gt;&lt;/div&gt;" style="whiteSpace=wrap;html=1;aspect=fixed;" vertex="1" parent="1">
          <mxGeometry x="442.5" y="30" width="350" height="350" as="geometry" />
        </mxCell>
        <mxCell id="KIr-b63hb1bfMVlRm7Oq-17" value="" style="curved=1;endArrow=classic;html=1;rounded=0;exitX=0.641;exitY=1.009;exitDx=0;exitDy=0;exitPerimeter=0;entryX=1;entryY=0.081;entryDx=0;entryDy=0;entryPerimeter=0;" edge="1" parent="1" source="KIr-b63hb1bfMVlRm7Oq-4" target="KIr-b63hb1bfMVlRm7Oq-5">
          <mxGeometry width="50" height="50" relative="1" as="geometry">
            <mxPoint x="390" y="490" as="sourcePoint" />
            <mxPoint x="440" y="440" as="targetPoint" />
            <Array as="points">
              <mxPoint x="440" y="490" />
              <mxPoint x="390" y="440" />
            </Array>
          </mxGeometry>
        </mxCell>
        <mxCell id="KIr-b63hb1bfMVlRm7Oq-18" value="" style="shape=flexArrow;endArrow=classic;html=1;rounded=0;" edge="1" parent="1" target="KIr-b63hb1bfMVlRm7Oq-6">
          <mxGeometry width="50" height="50" relative="1" as="geometry">
            <mxPoint x="170" y="595" as="sourcePoint" />
            <mxPoint x="220" y="545" as="targetPoint" />
            <Array as="points">
              <mxPoint x="190" y="650" />
            </Array>
          </mxGeometry>
        </mxCell>
        <mxCell id="KIr-b63hb1bfMVlRm7Oq-19" value="" style="shape=flexArrow;endArrow=classic;html=1;rounded=0;" edge="1" parent="1">
          <mxGeometry width="50" height="50" relative="1" as="geometry">
            <mxPoint x="389.86" y="560.16" as="sourcePoint" />
            <mxPoint x="440" y="560" as="targetPoint" />
          </mxGeometry>
        </mxCell>
        <mxCell id="KIr-b63hb1bfMVlRm7Oq-20" value="" style="shape=flexArrow;endArrow=classic;html=1;rounded=0;entryX=1;entryY=0.09;entryDx=0;entryDy=0;entryPerimeter=0;" edge="1" parent="1" target="KIr-b63hb1bfMVlRm7Oq-8">
          <mxGeometry width="50" height="50" relative="1" as="geometry">
            <mxPoint x="440" y="700" as="sourcePoint" />
            <mxPoint x="440" y="680" as="targetPoint" />
          </mxGeometry>
        </mxCell>
        <mxCell id="KIr-b63hb1bfMVlRm7Oq-21" value="" style="shape=flexArrow;endArrow=classic;html=1;rounded=0;" edge="1" parent="1">
          <mxGeometry width="50" height="50" relative="1" as="geometry">
            <mxPoint x="150" y="880" as="sourcePoint" />
            <mxPoint x="150" y="910" as="targetPoint" />
          </mxGeometry>
        </mxCell>
        <mxCell id="KIr-b63hb1bfMVlRm7Oq-22" value="" style="shape=flexArrow;endArrow=classic;html=1;rounded=0;entryX=0.441;entryY=1.012;entryDx=0;entryDy=0;entryPerimeter=0;" edge="1" parent="1" target="KIr-b63hb1bfMVlRm7Oq-10">
          <mxGeometry width="50" height="50" relative="1" as="geometry">
            <mxPoint x="240" y="980" as="sourcePoint" />
            <mxPoint x="290" y="930" as="targetPoint" />
          </mxGeometry>
        </mxCell>
        <mxCell id="KIr-b63hb1bfMVlRm7Oq-24" value="" style="shape=flexArrow;endArrow=classic;html=1;rounded=0;exitX=0.865;exitY=1.012;exitDx=0;exitDy=0;exitPerimeter=0;" edge="1" parent="1" source="KIr-b63hb1bfMVlRm7Oq-10">
          <mxGeometry width="50" height="50" relative="1" as="geometry">
            <mxPoint x="380" y="890" as="sourcePoint" />
            <mxPoint x="447" y="940" as="targetPoint" />
          </mxGeometry>
        </mxCell>
        <mxCell id="KIr-b63hb1bfMVlRm7Oq-25" value="SYLVESTER OMONDI GROUP" style="rounded=0;whiteSpace=wrap;html=1;" vertex="1" parent="1">
          <mxGeometry x="150" y="-170" width="320" height="60" as="geometry" />
        </mxCell>
      </root>
    </mxGraphModel>
  </diagram>
</mxfile>
